<svg width="30" height="30" viewBox="0 0 30 30" fill="none" xmlns="http://www.w3.org/2000/svg">
<path d="M28.8917 0.0312347C28.8831 0.0335785 28.8744 0.0356879 28.8658 0.038266C28.8637 0.0389105 28.8615 0.0393793 28.8594 0.0400238L0.618751 8.80413C0.25131 8.91821 0.000645777 9.25782 1.24586e-06 9.6426C-0.000643285 10.0274 0.248849 10.3678 0.615997 10.4831L11.5054 13.902L9.44848 19.4203C9.32824 19.7429 9.40729 20.1059 9.65068 20.3493C9.89449 20.5931 10.2577 20.6716 10.5797 20.5515L16.0979 18.4947L19.517 29.3841C19.6321 29.7507 19.9719 30.0001 20.3561 30.0001C20.3565 30.0001 20.3571 30.0001 20.3575 30.0001C20.7422 29.9994 21.0819 29.7488 21.1959 29.3813L29.9599 1.14053C29.9605 1.13836 29.961 1.13614 29.9617 1.13397C29.9642 1.12553 29.9663 1.11704 29.9686 1.1086C30.1463 0.45018 29.5407 -0.143843 28.8917 0.0312347ZM3.83063 9.64893L24.5867 3.20754L12.4839 12.3659L3.83063 9.64893ZM11.7686 18.2313L13.3877 13.8875L24.5871 5.41284L16.1123 16.6122L11.7686 18.2313ZM20.351 26.1693L17.634 17.5159L26.7923 5.41319L20.351 26.1693Z" fill="#0F1138"/>
</svg>
